<?xml version="1.0" standalone="no"?>
<!DOCTYPE svg PUBLIC "-//W3C//DTD SVG 20010904//EN"
 "http://www.w3.org/TR/2001/REC-SVG-20010904/DTD/svg10.dtd">
<svg version="1.0" xmlns="http://www.w3.org/2000/svg"
 width="300.000000pt" height="98.000000pt" viewBox="0 0 300.000000 98.000000"
 preserveAspectRatio="xMidYMid meet">
<metadata>
Created by potrace 1.10, written by Peter Selinger 2001-2011
</metadata>
<g transform="translate(0.000000,98.000000) scale(0.100000,-0.100000)"
fill="#000000" stroke="none">
<path d="M285 780 c-45 -22 -81 -70 -91 -118 l-6 -32 221 0 c241 0 264 4 313
56 27 29 48 73 48 100 0 12 -36 14 -222 14 -203 0 -227 -2 -263 -20z m430 -20
c9 -15 -19 -56 -52 -77 -23 -16 -54 -18 -221 -19 -163 -2 -194 0 -199 13 -10
25 50 76 99 84 71 11 366 10 373 -1z" fill="#EA4335"/>
<path d="M195 572 c-6 -6 13 -60 30 -90 9 -15 33 -39 53 -52 35 -25 40 -25
269 -28 164 -2 233 0 233 8 0 40 -52 119 -95 143 -18 11 -481 28 -490 19z
m446 -42 c43 -12 82 -51 77 -77 -3 -17 -16 -18 -178 -17 -96 0 -187 3 -202 7
-37 10 -88 55 -88 78 0 18 9 19 178 19 97 0 193 -5 213 -10z" fill="#EA4335"/>
<path d="M355 345 c-5 -2 -22 -6 -37 -9 -53 -12 -106 -72 -122 -139 l-7 -29
228 4 c227 3 228 3 274 30 36 21 51 39 68 77 11 27 21 54 21 60 0 8 -67 11
-207 10 -115 0 -212 -2 -218 -4z m365 -54 c0 -9 -14 -30 -31 -47 l-30 -29
-201 -3 c-110 -2 -205 1 -210 6 -10 10 24 57 55 75 20 11 387 28 410 19 4 -2
7 -11 7 -21z" fill="#EA4335"/>
<path d="M1257 772 c-22 -24 -21 -55 1 -75 37 -34 92 -11 92 38 0 50 -60 73
-93 37z" fill="#34A853"/>
<path d="M1421 776 c-8 -9 -11 -96 -9 -297 l3 -284 35 0 35 0 3 289 c2 301 2
305 -39 306 -9 0 -22 -6 -28 -14z" fill="#4285F4"/>
<path d="M2026 774 c-23 -22 -20 -71 3 -84 29 -15 56 -12 74 8 47 52 -28 126
-77 76z" fill="#FBBC05"/>
<path d="M855 768 c-3 -7 -4 -139 -3 -293 l3 -280 29 -3 c37 -5 46 10 46 75
l0 53 126 141 c118 133 124 142 111 163 -29 43 -48 32 -146 -84 -52 -60 -95
-110 -95 -110 -1 0 -1 78 -1 172 l0 173 -33 3 c-20 2 -34 -2 -37 -10z m37
-181 c-3 -135 7 -163 56 -159 18 1 32 1 32 -1 0 -1 -18 -23 -40 -47 -22 -24
-40 -50 -40 -57 0 -6 -4 -14 -9 -18 -6 -3 -10 77 -11 202 0 114 3 204 7 200 3
-4 6 -58 5 -120z" fill="#FBBC05"/>
<path d="M1042 398 c-7 -7 -12 -21 -12 -32 0 -23 76 -167 93 -178 15 -9 57 13
57 31 0 9 -21 55 -46 104 -45 87 -64 103 -92 75z" fill="#FBBC05"/>
<path d="M1555 758 c-3 -13 -4 -142 -3 -287 3 -289 4 -292 62 -277 l26 6 -2
288 -3 287 -37 3 c-32 3 -38 0 -43 -20z m54 -259 c1 -169 -2 -240 -10 -237 -7
2 -10 76 -9 232 1 206 3 246 15 246 2 0 4 -108 4 -241z" fill="#EA4335"/>
<path d="M1710 540 c-24 -24 -25 -48 -4 -78 31 -45 104 -19 104 37 0 55 -61
80 -100 41z m60 -39 c0 -21 -26 -36 -36 -20 -9 15 3 39 21 39 8 0 15 -9 15
-19z" fill="#EA4335"/>
<path d="M1875 768 c-3 -7 -4 -139 -3 -293 l3 -280 35 0 35 0 0 290 0 290 -33
3 c-20 2 -34 -2 -37 -10z m44 -199 c1 -83 -3 -148 -7 -145 -7 4 -10 281 -3
294 7 14 10 -21 10 -149z m-2 -215 c1 -31 -2 -53 -5 -49 -9 9 -12 105 -3 105
4 0 7 -25 8 -56z" fill="#EA4335"/>
<path d="M1264 629 c-8 -14 -8 -414 1 -428 8 -15 48 -14 63 1 17 17 17 409 0
426 -15 15 -55 16 -64 1z" fill="#34A853"/>
<path d="M2032 628 c-9 -9 -12 -66 -12 -214 0 -217 3 -229 52 -222 l23 3 0
220 0 220 -25 3 c-14 2 -31 -3 -38 -10z" fill="#FBBC05"/>
<path d="M2243 626 c-60 -27 -64 -43 -61 -247 l3 -184 35 0 35 0 3 174 c1 104
7 180 13 187 6 7 38 14 72 16 62 3 62 3 62 33 l0 30 -65 2 c-39 2 -78 -3 -97
-11z" fill="#34A853"/>
<path d="M2519 620 c-24 -12 -41 -31 -48 -51 -16 -47 -14 -272 3 -313 18 -42
74 -66 159 -66 112 0 171 31 183 97 8 41 -10 65 -45 61 -20 -2 -27 -10 -32
-37 -9 -44 -22 -51 -100 -51 -95 0 -99 6 -99 158 0 148 2 152 100 152 83 0
100 -13 100 -76 l0 -44 -74 0 c-66 0 -75 -2 -81 -20 -13 -40 10 -50 111 -50
116 0 124 6 124 96 0 129 -39 164 -182 164 -62 -1 -92 -6 -119 -20z m260 -99
l-1 -36 -9 39 c-5 22 -15 47 -22 55 -7 10 -3 8 11 -3 16 -14 22 -29 21 -55z
m-256 -258 c5 -7 4 -13 -1 -13 -14 0 -22 38 -20 95 l1 50 6 -60 c3 -33 10 -66
14 -72z" fill="#4285F4"/>
</g>
</svg>
